<?xml version="1.0" encoding="UTF-8"?>
<svg version="1.1" xmlns="http://www.w3.org/2000/svg" width="117" height="40">
<path d="M0 0 C38.61 0 77.22 0 117 0 C117 13.2 117 26.4 117 40 C78.39 40 39.78 40 0 40 C0 26.8 0 13.6 0 0 Z " fill="#040506" transform="translate(0,0)"/>
<path d="M0 0 C0.99 0 1.98 0 3 0 C3 2.64 3 5.28 3 8 C3.37125 7.34 3.7425 6.68 4.125 6 C6 4 6 4 9.1875 3.75 C10.115625 3.8325 11.04375 3.915 12 4 C12.12375 5.423125 12.12375 5.423125 12.25 6.875 C12.65074923 10.10461791 12.65074923 10.10461791 15.0625 11.375 C15.701875 11.58125 16.34125 11.7875 17 12 C16.484375 11.608125 15.96875 11.21625 15.4375 10.8125 C14.963125 10.214375 14.48875 9.61625 14 9 C14.3125 6.3125 14.3125 6.3125 15 4 C17.475 4.495 17.475 4.495 20 5 C19.01 5.495 19.01 5.495 18 6 C17.34 5.67 16.68 5.34 16 5 C17.32 6.32 18.64 7.64 20 9 C20.33 6.36 20.66 3.72 21 1 C21.99 1 22.98 1 24 1 C24 2.32 24 3.64 24 5 C25.65 4.67 27.3 4.34 29 4 C29.96878011 9.37232607 29.96878011 9.37232607 30 12 C28.5625 13.875 28.5625 13.875 27 15 C27 15.66 27 16.32 27 17 C28.27875 17 29.5575 17 30.875 17 C37.58333333 17 44.29166667 17 51 17 C51 18.98 51 20.96 51 23 C51.66 23 52.32 23 53 23 C53 21.02 53 19.04 53 17 C53.99 17 54.98 17 56 17 C55.67 19.64 55.34 22.28 55 25 C52.69 25 50.38 25 48 25 C48.33 23.02 48.66 21.04 49 19 C48.01 19.495 48.01 19.495 47 20 C46.34444881 22.52733235 46.34444881 22.52733235 46 25 C45.34 25 44.68 25 44 25 C43.505 23.515 43.505 23.515 43 22 C42.67 22.66 42.34 23.32 42 24 C41.34 24 40.68 24 40 24 C40 22.35 40 20.7 40 19 C39.01 19.495 39.01 19.495 38 20 C37.34786708 22.02463255 37.34786708 22.02463255 37 24 C36.34 24 35.68 24 35 24 C35 22.68 35 21.36 35 20 C34.34 20 33.68 20 33 20 C32.34 21.65 31.68 23.3 31 25 C30.34 25 29.68 25 29 25 C29 23.02 29 21.04 29 19 C28.01 19 27.02 19 26 19 C26.495 21.97 26.495 21.97 27 25 C26.01 25 25.02 25 24 25 C23.67 23.35 23.34 21.7 23 20 C22.34 20 21.68 20 21 20 C21 19.34 21 18.68 21 18 C20.34 18 19.68 18 19 18 C18.83312552 20.41645782 18.83312552 20.41645782 19 23 C19.66 23.66 20.32 24.32 21 25 C19.35 24.67 17.7 24.34 16 24 C15.67 21.69 15.34 19.38 15 17 C13.02 17.66 11.04 18.32 9 19 C8.74969023 21.41619823 8.74969023 21.41619823 9 24 C9.99 24.66 10.98 25.32 12 26 C9.125 26.625 9.125 26.625 6 27 C5.34 26.34 4.68 25.68 4 25 C4.0234375 22.8359375 4.0234375 22.8359375 4.375 20.375 C4.54128906 19.14910156 4.54128906 19.14910156 4.7109375 17.8984375 C4.85402344 16.95871094 4.85402344 16.95871094 5 16 C2.69 15.67 0.38 15.34 -2 15 C-2 15.99 -2 16.98 -2 18 C-1.01 18 -0.02 18 1 18 C0.67 18.99 0.34 19.98 0 21 C-0.99 20.67 -1.98 20.34 -3 20 C-2.67 20.99 -2.34 21.98 -2 23 C-0.35 22.67 1.3 22.34 3 22 C2.67 22.99 2.34 23.98 2 25 C-0.97 25 -3.94 25 -7 25 C-6.67 24.34 -6.34 23.68 -6 23 C-5.76565288 21.0870598 -5.76565288 21.0870598 -5.75 19 C-5.72421875 18.29875 -5.6984375 17.5975 -5.671875 16.875 C-5.78015625 16.25625 -5.8884375 15.6375 -6 15 C-6.99 14.34 -7.98 13.68 -9 13 C-8.67 13.99 -8.34 14.98 -8 16 C-9.32 16 -10.64 16 -12 16 C-12 12.37 -12 8.74 -12 5 C-8.68024318 4.1700608 -6.35107416 3.81886086 -3 4 C-2.67 4.33 -2.34 4.66 -2 5 C-1.34 3.35 -0.68 1.7 0 0 Z " fill="#0F070C" transform="translate(34,6)"/>
<path d="M0 0 C0.66 0 1.32 0 2 0 C2 0.66 2 1.32 2 2 C3.27875 2 4.5575 2 5.875 2 C12.58333333 2 19.29166667 2 26 2 C26 3.98 26 5.96 26 8 C26.66 8 27.32 8 28 8 C28 6.02 28 4.04 28 2 C28.99 2 29.98 2 31 2 C30.67 4.64 30.34 7.28 30 10 C27.69 10 25.38 10 23 10 C23.33 8.02 23.66 6.04 24 4 C23.34 4.33 22.68 4.66 22 5 C21.34444881 7.52733235 21.34444881 7.52733235 21 10 C20.34 10 19.68 10 19 10 C18.67 9.01 18.34 8.02 18 7 C17.67 7.66 17.34 8.32 17 9 C16.34 9 15.68 9 15 9 C15 7.35 15 5.7 15 4 C14.01 4.495 14.01 4.495 13 5 C12.34786708 7.02463255 12.34786708 7.02463255 12 9 C11.34 9 10.68 9 10 9 C10 7.68 10 6.36 10 5 C9.34 5 8.68 5 8 5 C7.34 6.65 6.68 8.3 6 10 C5.34 10 4.68 10 4 10 C4 8.02 4 6.04 4 4 C3.01 4 2.02 4 1 4 C1.33 5.98 1.66 7.96 2 10 C1.01 10 0.02 10 -1 10 C-1.33 8.35 -1.66 6.7 -2 5 C-2.66 5 -3.32 5 -4 5 C-4 4.34 -4 3.68 -4 3 C-4.66 3 -5.32 3 -6 3 C-6.16687448 5.41645782 -6.16687448 5.41645782 -6 8 C-5.34 8.66 -4.68 9.32 -4 10 C-5.65 9.67 -7.3 9.34 -9 9 C-9.125 6.625 -9.125 6.625 -9 4 C-8.34 3.34 -7.68 2.68 -7 2 C-5.33333333 2 -3.66666667 2 -2 2 C-1.34 1.34 -0.68 0.68 0 0 Z " fill="#D98881" transform="translate(59,21)"/>
<path d="M0 0 C5.28 0 10.56 0 16 0 C16 3.3 16 6.6 16 10 C10.72 10 5.44 10 0 10 C0 6.7 0 3.4 0 0 Z " fill="#479AA8" transform="translate(69,5)"/>
<path d="M0 0 C0.78375 0.04125 1.5675 0.0825 2.375 0.125 C3.035 2.435 3.695 4.745 4.375 7.125 C6.01579242 5.48420758 5.97612342 3.34731235 6.375 1.125 C7.035 1.125 7.695 1.125 8.375 1.125 C8.375 1.785 8.375 2.445 8.375 3.125 C9.365 2.795 10.355 2.465 11.375 2.125 C11.375 4.105 11.375 6.085 11.375 8.125 C12.035 7.795 12.695 7.465 13.375 7.125 C13.375 5.475 13.375 3.825 13.375 2.125 C14.365 2.125 15.355 2.125 16.375 2.125 C16.375 4.105 16.375 6.085 16.375 8.125 C17.035 8.455 17.695 8.785 18.375 9.125 C18.045 9.785 17.715 10.445 17.375 11.125 C11.765 11.125 6.155 11.125 0.375 11.125 C0.045 10.465 -0.285 9.805 -0.625 9.125 C-2.64169827 7.99149466 -2.64169827 7.99149466 -4.625 7.125 C-4.75 4.75 -4.75 4.75 -4.625 2.125 C-2.625 0.125 -2.625 0.125 0 0 Z " fill="#6B3949" transform="translate(46.625,22.875)"/>
<path d="M0 0 C0.99 0 1.98 0 3 0 C3 2.64 3 5.28 3 8 C3.37125 7.34 3.7425 6.68 4.125 6 C6 4 6 4 9.1875 3.75 C10.115625 3.8325 11.04375 3.915 12 4 C12.12375 5.423125 12.12375 5.423125 12.25 6.875 C12.65074923 10.10461791 12.65074923 10.10461791 15.0625 11.375 C15.701875 11.58125 16.34125 11.7875 17 12 C16.484375 11.608125 15.96875 11.21625 15.4375 10.8125 C14.963125 10.214375 14.48875 9.61625 14 9 C14.3125 6.3125 14.3125 6.3125 15 4 C17.475 4.495 17.475 4.495 20 5 C19.01 5.495 19.01 5.495 18 6 C17.34 5.67 16.68 5.34 16 5 C16.495 5.391875 16.99 5.78375 17.5 6.1875 C19 8 19 8 19 13 C12.4 13 5.8 13 -1 13 C-1.09765625 3.72265625 -1.09765625 3.72265625 -1 1 C-0.67 0.67 -0.34 0.34 0 0 Z " fill="#744693" transform="translate(34,6)"/>
<path d="M0 0 C0.721875 0.00257812 1.44375 0.00515625 2.1875 0.0078125 C2.909375 0.00523438 3.63125 0.00265625 4.375 0 C6.1875 0.1328125 6.1875 0.1328125 7.1875 1.1328125 C6.90019945 3.47225986 6.56813221 5.8067268 6.1875 8.1328125 C4.2075 8.4628125 2.2275 8.7928125 0.1875 9.1328125 C0.5175 10.1228125 0.8475 11.1128125 1.1875 12.1328125 C-0.1325 12.1328125 -1.4525 12.1328125 -2.8125 12.1328125 C-2.83937279 10.32039198 -2.85883715 8.50786017 -2.875 6.6953125 C-2.88660156 5.68597656 -2.89820312 4.67664063 -2.91015625 3.63671875 C-2.77625272 0.20343231 -2.77625272 0.20343231 0 0 Z " fill="#5449A0" transform="translate(24.8125,9.8671875)"/>
<path d="M0 0 C3.96 0 7.92 0 12 0 C12 3.63 12 7.26 12 11 C11.01 11 10.02 11 9 11 C9.33 8.03 9.66 5.06 10 2 C7.69 1.67 5.38 1.34 3 1 C3 1.99 3 2.98 3 4 C3.99 4 4.98 4 6 4 C5.67 4.99 5.34 5.98 5 7 C4.01 6.67 3.02 6.34 2 6 C2.33 6.99 2.66 7.98 3 9 C4.65 8.67 6.3 8.34 8 8 C7.67 8.99 7.34 9.98 7 11 C4.03 11 1.06 11 -2 11 C-1.67 10.34 -1.34 9.68 -1 9 C-0.77532169 7.46331135 -0.59203195 5.92031946 -0.4375 4.375 C-0.293125 2.93125 -0.14875 1.4875 0 0 Z " fill="#DE61A7" transform="translate(29,20)"/>
<path d="M0 0 C0 1.98 0 3.96 0 6 C0.66 6 1.32 6 2 6 C2 4.02 2 2.04 2 0 C2.99 0 3.98 0 5 0 C4.67 2.64 4.34 5.28 4 8 C1.69 8 -0.62 8 -3 8 C-2.67 6.02 -2.34 4.04 -2 2 C-2.99 2.495 -2.99 2.495 -4 3 C-4.65555119 5.52733235 -4.65555119 5.52733235 -5 8 C-5.66 8 -6.32 8 -7 8 C-7.33 7.01 -7.66 6.02 -8 5 C-8.33 5.66 -8.66 6.32 -9 7 C-9.66 7 -10.32 7 -11 7 C-11 5.02 -11 3.04 -11 1 C-7.32589215 -0.17571451 -3.83070817 -0.07366746 0 0 Z " fill="#E0A66F" transform="translate(85,23)"/>
<path d="M0 0 C9.57 0 19.14 0 29 0 C25.08707016 2.60861989 22.19796482 3.12589028 17.55859375 3.1328125 C16.31239258 3.13474609 16.31239258 3.13474609 15.04101562 3.13671875 C13.75227539 3.13091797 13.75227539 3.13091797 12.4375 3.125 C11.57447266 3.12886719 10.71144531 3.13273438 9.82226562 3.13671875 C8.99275391 3.13542969 8.16324219 3.13414063 7.30859375 3.1328125 C6.55376709 3.13168457 5.79894043 3.13055664 5.02124023 3.12939453 C3 3 3 3 0 2 C0 1.34 0 0.68 0 0 Z " fill="#000202" transform="translate(29,0)"/>
<path d="M0 0 C1.98 0 3.96 0 6 0 C6 3.96 6 7.92 6 12 C4.02 12 2.04 12 0 12 C0 8.04 0 4.08 0 0 Z " fill="#C7D4E6" transform="translate(13,22)"/>
<path d="M0 0 C1.4540625 0.0309375 1.4540625 0.0309375 2.9375 0.0625 C3.2675 1.3825 3.5975 2.7025 3.9375 4.0625 C3.2775 4.0625 2.6175 4.0625 1.9375 4.0625 C1.9375 3.4025 1.9375 2.7425 1.9375 2.0625 C0.6175 2.0625 -0.7025 2.0625 -2.0625 2.0625 C-1.2375 2.784375 -0.4125 3.50625 0.4375 4.25 C2.9375 7.0625 2.9375 7.0625 3.3125 9.8125 C2.9375 12.0625 2.9375 12.0625 1.9375 13.0625 C-0.39547433 13.10342937 -2.72955225 13.10491723 -5.0625 13.0625 C-5.3925 11.7425 -5.7225 10.4225 -6.0625 9.0625 C-4.0825 9.7225 -2.1025 10.3825 -0.0625 11.0625 C-0.7225 10.52625 -1.3825 9.99 -2.0625 9.4375 C-4.0625 7.0625 -4.0625 7.0625 -4.375 3.875 C-3.95340909 0.08068182 -3.95340909 0.08068182 0 0 Z " fill="#5B64DE" transform="translate(18.0625,5.9375)"/>
<path d="M0 0 C0.99 0 1.98 0 3 0 C3 1.32 3 2.64 3 4 C4.65 3.67 6.3 3.34 8 3 C8.33 5.64 8.66 8.28 9 11 C7.68 11.33 6.36 11.66 5 12 C4.67 10.02 4.34 8.04 4 6 C3.34 7.98 2.68 9.96 2 12 C1.34 12 0.68 12 0 12 C0 8.04 0 4.08 0 0 Z " fill="#E261BD" transform="translate(55,7)"/>
<path d="M0 0 C5.94 0 11.88 0 18 0 C18.33 0.99 18.66 1.98 19 3 C12.4 3 5.8 3 -1 3 C-0.67 2.01 -0.34 1.02 0 0 Z " fill="#415059" transform="translate(68,16)"/>
<path d="M0 0 C1.32 0 2.64 0 4 0 C4 0.99 4 1.98 4 3 C3.01 2.67 2.02 2.34 1 2 C1.33 3.32 1.66 4.64 2 6 C4.97 6.495 4.97 6.495 8 7 C7.34 6.01 6.68 5.02 6 4 C6 2.68 6 1.36 6 0 C7.65 0.33 9.3 0.66 11 1 C10.34 1.66 9.68 2.32 9 3 C9.33 4.65 9.66 6.3 10 8 C6.04 8 2.08 8 -2 8 C-2 2 -2 2 0 0 Z " fill="#DCB95A" transform="translate(93,23)"/>
<path d="M0 0 C0.33 0 0.66 0 1 0 C1.0825 0.94875 1.165 1.8975 1.25 2.875 C1.65074923 6.10461791 1.65074923 6.10461791 4.0625 7.375 C4.701875 7.58125 5.34125 7.7875 6 8 C5.484375 7.608125 4.96875 7.21625 4.4375 6.8125 C3.963125 6.214375 3.48875 5.61625 3 5 C3.3125 2.3125 3.3125 2.3125 4 0 C5.65 0.33 7.3 0.66 9 1 C8.01 1.495 8.01 1.495 7 2 C6.34 1.67 5.68 1.34 5 1 C5.495 1.391875 5.99 1.78375 6.5 2.1875 C8 4 8 4 8 9 C4.7 9 1.4 9 -2 9 C-1.125 1.125 -1.125 1.125 0 0 Z " fill="#B461C8" transform="translate(45,10)"/>
<path d="M0 0 C2.31 0.33 4.62 0.66 7 1 C6.67 3.97 6.34 6.94 6 10 C5.34 9.67 4.68 9.34 4 9 C3.67 9 3.34 9 3 9 C1.66431979 8.67619874 0.33076989 8.34342449 -1 8 C-1 7.01 -1 6.02 -1 5 C-0.01 5 0.98 5 2 5 C2.33 4.34 2.66 3.68 3 3 C2.01 3 1.02 3 0 3 C0 2.01 0 1.02 0 0 Z " fill="#4D2238" transform="translate(32,21)"/>
<path d="M0 0 C0 1.32 0 2.64 0 4 C-4.95 4 -9.9 4 -15 4 C-15 3.34 -15 2.68 -15 2 C-9.87080814 -0.10428384 -5.4389165 -0.21755666 0 0 Z " fill="#5CC9D9" transform="translate(85,10)"/>
<path d="M0 0 C0.66 0.33 1.32 0.66 2 1 C2 2.65 2 4.3 2 6 C3.093125 5.79375 4.18625 5.5875 5.3125 5.375 C9 5 9 5 12 7 C11.24074219 7.04898438 10.48148438 7.09796875 9.69921875 7.1484375 C8.20841797 7.26058594 8.20841797 7.26058594 6.6875 7.375 C5.20830078 7.47941406 5.20830078 7.47941406 3.69921875 7.5859375 C0.78471567 7.83865472 0.78471567 7.83865472 -2 10 C-5 9 -5 9 -7 6 C-3.98968256 5.06576355 -3.13349732 4.95550089 0 6 C0 4.02 0 2.04 0 0 Z " fill="#292011" transform="translate(89,25)"/>
<path d="M0 0 C0.33 0 0.66 0 1 0 C1.07442057 3.86986958 1.04702186 7.2735915 0 11 C0.61488281 10.90460937 1.22976562 10.80921875 1.86328125 10.7109375 C2.67152344 10.60007812 3.47976562 10.48921875 4.3125 10.375 C5.11300781 10.25898438 5.91351563 10.14296875 6.73828125 10.0234375 C9 10 9 10 12 12 C11.01 12 10.02 12 9 12 C8.67 13.32 8.34 14.64 8 16 C8 14.68 8 13.36 8 12 C1.565 12.495 1.565 12.495 -5 13 C-5.33 12.34 -5.66 11.68 -6 11 C-4.68 10.67 -3.36 10.34 -2 10 C-1.34 6.7 -0.68 3.4 0 0 Z " fill="#301B33" transform="translate(33,8)"/>
<path d="M0 0 C0.99 0 1.98 0 3 0 C2.979375 1.2375 2.95875 2.475 2.9375 3.75 C2.93233319 6.6640825 3.06984442 9.20953327 4 12 C2.35 12.33 0.7 12.66 -1 13 C-1.02686553 11.02090602 -1.04633375 9.04171029 -1.0625 7.0625 C-1.07410156 5.96035156 -1.08570313 4.85820312 -1.09765625 3.72265625 C-1 1 -1 1 0 0 Z " fill="#8D60CC" transform="translate(34,6)"/>
<path d="M0 0 C0.33 1.32 0.66 2.64 1 4 C-0.32 4 -1.64 4 -3 4 C-3 3.34 -3 2.68 -3 2 C-3.66 2 -4.32 2 -5 2 C-5.16687448 4.41645782 -5.16687448 4.41645782 -5 7 C-4.34 7.66 -3.68 8.32 -3 9 C-4.65 8.67 -6.3 8.34 -8 8 C-8.125 5.625 -8.125 5.625 -8 3 C-6 1 -6 1 -3.4375 0.9375 C-2.2309375 0.9684375 -2.2309375 0.9684375 -1 1 C-0.67 0.67 -0.34 0.34 0 0 Z " fill="#DB7E8D" transform="translate(58,22)"/>
<path d="M0 0 C0.33 0.66 0.66 1.32 1 2 C1.66 2 2.32 2 3 2 C3 1.34 3 0.68 3 0 C3.66 0 4.32 0 5 0 C5.66 1.98 6.32 3.96 7 6 C4.69 6 2.38 6 0 6 C-0.38218767 4.34385343 -0.71395102 2.67542976 -1 1 C-0.67 0.67 -0.34 0.34 0 0 Z " fill="#332A14" transform="translate(94,24)"/>
<path d="M0 0 C3 0.125 3 0.125 4 1.125 C4.04063832 2.79117115 4.042721 4.45888095 4 6.125 C3.01 6.62 3.01 6.62 2 7.125 C1.67 5.805 1.34 4.485 1 3.125 C0.34 3.125 -0.32 3.125 -1 3.125 C-2.63676257 5.0850281 -2.63676257 5.0850281 -4 7.125 C-4.04254356 5.12545254 -4.04080783 3.12458364 -4 1.125 C-3 0.125 -3 0.125 0 0 Z " fill="#8369E5" transform="translate(28,9.875)"/>
<path d="M0 0 C0.66 0 1.32 0 2 0 C2 0.66 2 1.32 2 2 C2.99 1.67 3.98 1.34 5 1 C5 2.98 5 4.96 5 7 C3.35 6.67 1.7 6.34 0 6 C-1.125 2.25 -1.125 2.25 0 0 Z " fill="#3B2225" transform="translate(53,24)"/>
<path d="M0 0 C0.66 0 1.32 0 2 0 C2.33 0.66 2.66 1.32 3 2 C3.66 2 4.32 2 5 2 C5 3.32 5 4.64 5 6 C3.02 6 1.04 6 -1 6 C-1.042721 4.33388095 -1.04063832 2.66617115 -1 1 C-0.67 0.67 -0.34 0.34 0 0 Z " fill="#653443" transform="translate(45,24)"/>
<path d="M0 0 C3 0 6 0 9 0 C8.360625 0.4125 7.72125 0.825 7.0625 1.25 C4.79009069 3.17810487 4.39803561 4.11424181 4 7 C3.34 7 2.68 7 2 7 C2 5.68 2 4.36 2 3 C1.34 3 0.68 3 0 3 C0 2.01 0 1.02 0 0 Z " fill="#CF8E73" transform="translate(67,23)"/>
<path d="M0 0 C1.65 0.33 3.3 0.66 5 1 C4.01 1.495 4.01 1.495 3 2 C2.34 1.67 1.68 1.34 1 1 C1.495 1.4125 1.99 1.825 2.5 2.25 C4 4 4 4 4 8 C2 8 2 8 0.3125 6.8125 C-1 5 -1 5 -0.6875 2.3125 C-0.460625 1.549375 -0.23375 0.78625 0 0 Z " fill="#CE66CF" transform="translate(49,10)"/>
<path d="M0 0 C1.32 0 2.64 0 4 0 C4 0.66 4 1.32 4 2 C4.99 2.33 5.98 2.66 7 3 C6.67 4.98 6.34 6.96 6 9 C5.62875 8.1028125 5.62875 8.1028125 5.25 7.1875 C3.83555909 4.71222841 2.27139812 3.66569196 0 2 C0 1.34 0 0.68 0 0 Z " fill="#111229" transform="translate(16,8)"/>
<path d="M0 0 C0.33 0 0.66 0 1 0 C1.33 2.31 1.66 4.62 2 7 C3.65 6.67 5.3 6.34 7 6 C6.67 6.99 6.34 7.98 6 9 C3.03 9 0.06 9 -3 9 C-2.34 8.01 -1.68 7.02 -1 6 C-0.60986284 4.0103005 -0.26797351 2.00980131 0 0 Z " fill="#F36ABB" transform="translate(30,22)"/>
<path d="M0 0 C0.66 0 1.32 0 2 0 C2 3.63 2 7.26 2 11 C1.01 11 0.02 11 -1 11 C-0.67 7.37 -0.34 3.74 0 0 Z " fill="#EE75AD" transform="translate(39,20)"/>
<path d="M0 0 C2.31 0.33 4.62 0.66 7 1 C6.67 2.65 6.34 4.3 6 6 C5.34 6 4.68 6 4 6 C4 4.68 4 3.36 4 2 C2.68 2.33 1.36 2.66 0 3 C0 2.01 0 1.02 0 0 Z " fill="#26111C" transform="translate(32,21)"/>
<path d="M0 0 C3.16130459 4.21507278 3.3367697 5.06071112 3 10 C2.01 10.33 1.02 10.66 0 11 C0 7.37 0 3.74 0 0 Z " fill="#BE56AA" transform="translate(55,8)"/>
<path d="M0 0 C1.98 0.66 3.96 1.32 6 2 C6.33 1.34 6.66 0.68 7 0 C7.33 1.32 7.66 2.64 8 4 C5.69 4 3.38 4 1 4 C0.67 2.68 0.34 1.36 0 0 Z " fill="#4B5AC6" transform="translate(12,15)"/>
<path d="M0 0 C0.66 0 1.32 0 2 0 C2.33 1.98 2.66 3.96 3 6 C1.35 6 -0.3 6 -2 6 C-1.34 4.02 -0.68 2.04 0 0 Z " fill="#674536" transform="translate(72,25)"/>
<path d="M0 0 C0.9075 0.226875 1.815 0.45375 2.75 0.6875 C2.42 1.3475 2.09 2.0075 1.75 2.6875 C-1.22 2.6875 -4.19 2.6875 -7.25 2.6875 C-4.61280971 0.1517401 -3.74095095 -0.35970682 0 0 Z " fill="#060403" transform="translate(59.25,30.3125)"/>
<path d="M0 0 C2 2 2 2 2 5 C0.35 5 -1.3 5 -3 5 C-2.67 3.68 -2.34 2.36 -2 1 C-1.34 1.33 -0.68 1.66 0 2 C0 1.34 0 0.68 0 0 Z " fill="#DDECFB" transform="translate(17,28)"/>
<path d="M0 0 C0.99 0 1.98 0 3 0 C2.67 2.64 2.34 5.28 2 8 C1.34 8 0.68 8 0 8 C0 5.36 0 2.72 0 0 Z " fill="#EBBC6A" transform="translate(87,23)"/>
<path d="M0 0 C2.475 0.495 2.475 0.495 5 1 C4.34 1.66 3.68 2.32 3 3 C3.3185177 5.10820797 3.3185177 5.10820797 4 7 C3.67 6.34 3.34 5.68 3 5 C2.01 4.67 1.02 4.34 0 4 C0 2.68 0 1.36 0 0 Z " fill="#EBD25A" transform="translate(99,23)"/>
<path d="M0 0 C0 0.99 0 1.98 0 3 C-0.99 3 -1.98 3 -3 3 C-3 2.34 -3 1.68 -3 1 C-5.64 1 -8.28 1 -11 1 C-11 0.67 -11 0.34 -11 0 C-3.375 -1.125 -3.375 -1.125 0 0 Z " fill="#57462B" transform="translate(90,19)"/>
<path d="M0 0 C2 2 2 2 2 5 C2.99 5.33 3.98 5.66 5 6 C5 6.66 5 7.32 5 8 C3.35 7.67 1.7 7.34 0 7 C0 4.69 0 2.38 0 0 Z " fill="#271429" transform="translate(46,10)"/>
<path d="M0 0 C0.99 0.495 0.99 0.495 2 1 C2.33 1.99 2.66 2.98 3 4 C3.99 4.66 4.98 5.32 6 6 C4.02 6.33 2.04 6.66 0 7 C0 4.69 0 2.38 0 0 Z " fill="#381B27" transform="translate(40,26)"/>
<path d="M0 0 C0.99 0 1.98 0 3 0 C3 1.98 3 3.96 3 6 C2.01 5.67 1.02 5.34 0 5 C0 3.35 0 1.7 0 0 Z " fill="#382221" transform="translate(60,25)"/>
</svg>
